<svg xmlns="http://www.w3.org/2000/svg" viewBox="0 0 512 512" width="512" height="512">
  <defs>
    <linearGradient id="bgB" x1="0" y1="0" x2="1" y2="1">
      <stop offset="0" stop-color="#0B6E55"/><stop offset="1" stop-color="#0A5A45"/>
    </linearGradient>
  </defs>
  <rect width="512" height="512" rx="112" fill="url(#bgB)"/>
  <rect x="150" y="100" width="212" height="312" rx="32" fill="#F7F4EC"/>
  <!-- screen with rising bars (finance) -->
  <rect x="178" y="132" width="156" height="78" rx="12" fill="#0B1F3A"/>
  <g fill="#00A7E2">
    <rect x="194" y="180" width="14" height="18" rx="3"/>
    <rect x="216" y="170" width="14" height="28" rx="3"/>
    <rect x="238" y="156" width="14" height="42" rx="3" fill="#43BDA7"/>
    <rect x="260" y="166" width="14" height="32" rx="3"/>
  </g>
  <path d="M194 186 L226 172 L248 160 L300 148" fill="none" stroke="#9A7B2E" stroke-width="6" stroke-linecap="round" stroke-linejoin="round"/>
  <g fill="#11212B">
    <rect x="178" y="232" width="44" height="38" rx="10"/>
    <rect x="244" y="232" width="44" height="38" rx="10"/>
    <rect x="310" y="232" width="24" height="38" rx="10" fill="#9A7B2E"/>
    <rect x="178" y="286" width="44" height="38" rx="10"/>
    <rect x="244" y="286" width="44" height="38" rx="10"/>
    <rect x="310" y="286" width="24" height="38" rx="10" fill="#0B6E55"/>
    <rect x="178" y="340" width="110" height="38" rx="10"/>
    <rect x="310" y="340" width="24" height="38" rx="10" fill="#00A7E2"/>
  </g>
</svg>
